<?xml version="1.0" encoding="UTF-8"?>
<svg id="Layer_1" data-name="Layer 1" xmlns="http://www.w3.org/2000/svg" viewBox="0 0 596 137.33">
  <defs>
    <style>
      .cls-1 {
        fill: #ff42ff;
      }
    </style>
  </defs>
  <path class="cls-1" d="M410.44,44.55h-11.04l-3.25,3.25v59.96c-4.89,4.89-7.63,7.63-12.52,12.52h-1.84c-4.89-4.89-7.63-7.63-12.52-12.52v-60.08c-1.22-1.22-1.91-1.91-3.14-3.14h-11.72c-4.25-4.25-6.63-6.63-10.88-10.88v-15.65l.35-.35h77.66l.35.35v15.07c-4.47,4.47-6.98,6.98-11.46,11.46Z"/>
  <path class="cls-1" d="M564.84,105.3h-57.77c-2.68,0-4.85-2.17-4.85-4.85V22.34c0-2.68,2.17-4.85,4.85-4.85l57.3-.07c2.68,0,4.86,2.17,4.86,4.85v13.04c0,2.68-2.17,4.85-4.85,4.85h-31.53c-1.68,1.68-2.62,2.62-4.3,4.3v1.06c1.7,1.7,2.65,2.65,4.34,4.34h30.56c2.68,0,4.85,2.17,4.85,4.85v13.17c0,2.68-2.17,4.85-4.85,4.85h-30.53c-1.71,1.71-2.67,2.67-4.37,4.37v.97l4.36,4.36h31.93c2.68,0,4.85,2.17,4.85,4.85v13.16c0,2.68-2.17,4.85-4.85,4.85Z"/>
  <path class="cls-1" d="M193.8,17.41c1.46,0,2.85.66,3.77,1.8l29.23,35.74V22.75c0-2.95,2.39-5.35,5.35-5.35h15.63c2.95,0,5.35,2.39,5.35,5.35v77.2c0,2.95-2.39,5.35-5.35,5.35h-14.23c-1.57,0-3.06-.69-4.08-1.89l-26.95-31.74-.28.1v28.17c0,2.95-2.39,5.35-5.35,5.35h-15.86c-2.95,0-5.35-2.39-5.35-5.35V22.76c0-2.95,2.39-5.35,5.35-5.35h12.78Z"/>
  <path class="cls-1" d="M161.15,43.63h-2.87c-2.67,0-4.84,2.17-4.84,4.84v25.42c0,2.67,2.17,4.84,4.84,4.84l7.71.34v21.38c0,2.67-2.17,4.84-4.84,4.84h-41.97c-2.67,0-4.84-2.17-4.84-4.84v-21.38l7.7-.34c2.67,0,4.84-2.17,4.84-4.84v-25.42c0-2.67-2.17-4.84-4.84-4.84h-2.86c-2.67,0-4.84-2.17-4.84-4.84v-20.67c0-.39.31-.7.7-.7h50.14c.45,0,.81.36.81.81v20.56c0,2.67-2.17,4.84-4.84,4.84Z"/>
  <path class="cls-1" d="M462.89,78.74h25.41c2.67,0,4.84,2.17,4.84,4.84v16.88c0,2.67-2.17,4.84-4.84,4.84h-51.97c-2.67,0-4.84-2.17-4.84-4.84V22.26c0-2.67,2.17-4.84,4.84-4.84h16.88c2.67,0,4.84,2.17,4.84,4.84v51.64c0,2.67,2.17,4.84,4.84,4.84Z"/>
  <path class="cls-1" d="M268.3,17.67h61.02c2.67,0,4.84,2.17,4.84,4.84v13.05c0,2.67-2.17,4.84-4.84,4.84h-34.96c-1.89,1.89-2.95,2.95-4.84,4.84v1.04c1.89,1.89,2.95,2.95,4.84,4.84h34.96c2.67,0,4.84,2.17,4.84,4.84v44.18c0,2.67-2.17,4.84-4.84,4.84h-61.02c-2.67,0-4.84-2.17-4.84-4.84v-13.06c0-2.67,2.17-4.84,4.84-4.84h39.19c1.64-1.64,2.56-2.56,4.21-4.21v-1.24c-1.65-1.65-2.58-2.58-4.23-4.23h-39.16c-2.67,0-4.84-2.17-4.84-4.84V22.51c0-2.67,2.17-4.84,4.84-4.84Z"/>
  <path class="cls-1" d="M71.24,17.06h-37.71c-3.99,0-7.22,3.24-7.22,7.23v72.21c0,4.86,3.94,8.79,8.79,8.79h9.84c4.25,0,7.7-3.45,7.7-7.7v-6.98c0-2.68,2.18-4.86,4.86-4.85,8.74.04,18.11,1.17,26.15-1.79,10.73-3.95,19.66-13.85,22-25.11,4.58-21.99-12.27-41.8-34.41-41.82ZM72.16,59.56h-17.93c-.88,0-1.59-.71-1.59-1.59v-13.79c0-.31.24-.56.55-.56h19.19c3.63,0,10.01,7.38,10,8.17s-6.69,7.76-10.23,7.76Z"/>
</svg>